<?xml version="1.0" encoding="utf-8"?>
<!-- Generator: Adobe Illustrator 19.1.1, SVG Export Plug-In . SVG Version: 6.00 Build 0)  -->
<svg version="1.1" id="Layer_1" xmlns="http://www.w3.org/2000/svg" xmlns:xlink="http://www.w3.org/1999/xlink" x="0px" y="0px"
	 viewBox="-93 82.7 561 198.3" style="enable-background:new -93 82.7 561 198.3;" xml:space="preserve">
<style type="text/css">
	.st0{fill:#F2F4F4;}
	.st1{fill:#415064;}
	.st2{fill:#D87F52;}
	.st3{fill:#F9BF6B;}
	.st4{fill:#7DD37D;}
	.st5{fill:#CCCCCC;}
	.st6{fill:#677383;}
	.st7{fill:#D4F0FC;}
	.st8{fill:#81969B;}
	.st9{fill:#546E7A;}
	.st10{fill:#E4E5E5;}
	.st11{fill:#2C94CE;}
	.st12{fill:#A7A7AA;}
	.st13{fill:#C9C9C9;}
	.st14{fill:#85C3E5;}
	.st15{fill:#FFFFFF;}
	.st16{fill:#3C535B;}
	.st17{clip-path:url(#SVGID_2_);fill:#81969B;}
	.st18{clip-path:url(#SVGID_4_);fill:#81969B;}
	.st19{fill:#ACBABC;}
	.st20{fill:#BF653D;}
	.st21{fill:#D1D3D3;}
	.st22{fill:#8BA0AB;}
	.st23{fill:#324D5B;}
	.st24{fill:#313C4B;}
	.st25{fill:#A2CDDD;}
</style>
<g>
	<rect x="-32.8" y="89.9" class="st0" width="129.4" height="64.4"/>
	<polygon class="st1" points="96.6,83.7 -32.8,83.7 -32.8,83.7 -32.8,90 96.6,90 	"/>
	<path class="st2" d="M-21.4,88.2L-21.4,88.2c-0.7,0-1.3-0.6-1.3-1.3l0,0c0-0.7,0.6-1.3,1.3-1.3l0,0c0.7,0,1.3,0.6,1.3,1.3l0,0
		C-20.1,87.6-20.7,88.2-21.4,88.2z"/>
	<path class="st3" d="M-25.6,88.2L-25.6,88.2c-0.7,0-1.3-0.6-1.3-1.3l0,0c0-0.7,0.6-1.3,1.3-1.3l0,0c0.7,0,1.3,0.6,1.3,1.3l0,0
		C-24.3,87.6-24.9,88.2-25.6,88.2z"/>
	<path class="st4" d="M-30.1,88.2L-30.1,88.2c-0.7,0-1.3-0.6-1.3-1.3l0,0c0-0.7,0.6-1.3,1.3-1.3l0,0c0.7,0,1.3,0.6,1.3,1.3l0,0
		C-28.8,87.6-29.4,88.2-30.1,88.2z"/>
	<rect x="76.9" y="110.9" class="st5" width="7.9" height="0.9"/>
	<rect x="36.7" y="110.9" class="st6" width="36.7" height="0.9"/>
	<rect x="60.7" y="129.3" class="st3" width="21.8" height="0.9"/>
	<rect x="20.9" y="129.3" class="st2" width="22.5" height="0.9"/>
	<rect x="58.8" y="101" class="st5" width="25.7" height="1"/>
	<rect x="-24.2" y="101" class="st6" width="76" height="0.9"/>
	<rect x="26.1" y="107.1" class="st6" width="61.9" height="0.9"/>
	<rect x="-24.2" y="104" class="st5" width="49.4" height="0.9"/>
	<rect x="-24.2" y="107.1" class="st5" width="42.9" height="0.9"/>
	<rect x="22.7" y="133.6" class="st5" width="21.8" height="0.9"/>
	<rect x="49.9" y="143" class="st5" width="34.9" height="0.9"/>
	<rect x="26.4" y="149" class="st6" width="61.9" height="0.9"/>
	<rect x="-23.9" y="146" class="st6" width="76" height="0.9"/>
	<rect x="-23.9" y="149" class="st3" width="42.9" height="0.9"/>
	<rect x="-24.2" y="126.2" class="st6" width="21.5" height="0.9"/>
	<rect x="-24.2" y="129.3" class="st6" width="25.8" height="0.9"/>
	<rect x="-11.4" y="110.9" class="st5" width="42.9" height="0.9"/>
	<rect x="-11.4" y="113.9" class="st6" width="42.9" height="0.9"/>
	<g>
		<path class="st1" d="M-23.9,98.3v-3.5h0.4v3.5H-23.9z"/>
		<path class="st1" d="M-22.6,98.3v-3.5h2.3v0.4h-1.8v1.1h1.8v0.4h-1.8v1.6H-22.6z"/>
	</g>
	<path class="st1" d="M-14.9,98.8c-0.3,0-0.6-0.3-0.6-0.7V97c0-0.2-0.1-0.4-0.3-0.4v-0.3c0.2,0,0.3-0.2,0.3-0.4v-1.1
		c0-0.4,0.3-0.7,0.6-0.7h0.3v0.5h-0.3c-0.2,0-0.3,0.2-0.3,0.4v1.1c0,0.2-0.1,0.4-0.2,0.5c0.2,0.1,0.2,0.2,0.2,0.5v1.1
		c0,0.2,0.2,0.4,0.3,0.4h0.3v0.3L-14.9,98.8L-14.9,98.8z"/>
	<path class="st1" d="M17.8,98.5h0.3c0.2,0,0.3-0.2,0.3-0.4V97c0-0.2,0.1-0.4,0.2-0.5c-0.2-0.1-0.2-0.2-0.2-0.5v-1.1
		c0-0.2-0.2-0.4-0.3-0.4h-0.3v-0.3h0.3c0.3,0,0.6,0.3,0.6,0.7V96c0,0.2,0.1,0.4,0.3,0.4v0.3c-0.2,0-0.3,0.2-0.3,0.4v1.1
		c0,0.4-0.3,0.7-0.6,0.7h-0.3V98.5z"/>
	<path class="st1" d="M51.7,136.3c-0.3,0-0.6-0.3-0.6-0.7v-1.1c0-0.2-0.1-0.4-0.3-0.4v-0.3c0.2,0,0.3-0.2,0.3-0.4v-1.1
		c0-0.4,0.3-0.7,0.6-0.7H52v0.3h-0.3c-0.2,0-0.3,0.2-0.3,0.4v1.3c0,0.2-0.1,0.4-0.2,0.5c0.2,0.1,0.2,0.2,0.2,0.5v1
		c0,0.2,0.2,0.4,0.3,0.4H52v0.3C52,136.3,51.7,136.3,51.7,136.3z"/>
	<path class="st1" d="M63.5,136h0.3c0.2,0,0.3-0.2,0.3-0.4v-1.1c0-0.2,0.1-0.4,0.2-0.5c-0.2-0.1-0.2-0.2-0.2-0.5v-1.1
		c0-0.2-0.2-0.4-0.3-0.4h-0.3v-0.3h0.3c0.3,0,0.6,0.3,0.6,0.7v1.2c0,0.2,0.1,0.4,0.3,0.4v0.3c-0.2,0-0.3,0.2-0.3,0.4v0.9
		c0,0.4-0.3,0.7-0.6,0.7h-0.3V136z"/>
	<g>
		<path class="st1" d="M-24.5,142.3v-3.5h2.3v0.4H-24v1.1h1.8v0.4H-24v1.2h1.8v0.4H-24.5z"/>
		<path class="st1" d="M-21.5,142.3v-3.5h0.4v3.1h1.6v0.4H-21.5z"/>
		<path class="st1" d="M-19.1,141.8l0.3-0.3c0.2,0.3,0.6,0.5,1.1,0.5c0.6,0,0.8-0.3,0.8-0.6c0-0.9-2-0.4-2-1.6c0-0.6,0.5-1,1.2-1
			c0.5,0,0.9,0.2,1.2,0.5l-0.3,0.3c-0.3-0.3-0.6-0.4-1-0.4s-0.7,0.2-0.7,0.6c0,0.8,2,0.3,2,1.6c0,0.5-0.3,1-1.3,1
			C-18.4,142.3-18.8,142.1-19.1,141.8z"/>
		<path class="st1" d="M-15.9,142.3v-3.5h2.3v0.4h-1.8v1.1h1.8v0.4h-1.8v1.2h1.8v0.4H-15.9z"/>
	</g>
	<path class="st1" d="M-10.1,142.8c-0.3,0-0.6-0.3-0.6-0.7V141c0-0.2-0.1-0.4-0.3-0.4v-0.3c0.2,0,0.3-0.2,0.3-0.4v-1.1
		c0-0.4,0.3-0.7,0.6-0.7h0.3v0.5h-0.3c-0.2,0-0.3,0.2-0.3,0.4v1.1c0,0.2-0.1,0.4-0.2,0.5c0.2,0.1,0.2,0.2,0.2,0.5v1.1
		c0,0.2,0.2,0.4,0.3,0.4h0.3v0.3h-0.3V142.8z"/>
	<path class="st1" d="M21.2,142.5h0.3c0.2,0,0.3-0.2,0.3-0.4V141c0-0.2,0.1-0.4,0.2-0.5c-0.2-0.1-0.2-0.2-0.2-0.5v-1.1
		c0-0.2-0.2-0.4-0.3-0.4h-0.3v-0.3h0.3c0.3,0,0.6,0.3,0.6,0.7v1.1c0,0.2,0.1,0.4,0.3,0.4v0.3c-0.2,0-0.3,0.2-0.3,0.4v1.1
		c0,0.4-0.3,0.7-0.6,0.7h-0.3V142.5z"/>
	<g>
		<path class="st1" d="M-10.8,123.3v-3.5h2.3v0.4h-1.8v1.1h1.8v0.4h-1.8v1.2h1.8v0.4H-10.8z"/>
		<path class="st1" d="M-7.8,123.3v-3.5h0.4v3.1h1.6v0.4H-7.8z"/>
		<path class="st1" d="M-5.4,122.8l0.3-0.3c0.2,0.3,0.6,0.5,1.1,0.5c0.6,0,0.8-0.3,0.8-0.6c0-0.9-2-0.4-2-1.6c0-0.6,0.5-1,1.2-1
			c0.5,0,0.9,0.2,1.2,0.5l-0.3,0.3c-0.3-0.3-0.6-0.4-1-0.4s-0.7,0.2-0.7,0.5c0,0.8,2.1,0.3,2.1,1.6c0,0.5-0.3,1-1.3,1
			C-4.7,123.3-5.1,123.1-5.4,122.8z"/>
		<path class="st1" d="M-2.1,123.3v-3.5h2.3v0.4h-1.8v1.1h1.8v0.4h-1.8v1.2h1.8v0.4H-2.1z"/>
		<path class="st1" d="M2.1,123.3v-3.5h0.4v3.5H2.1z"/>
		<path class="st1" d="M3.4,123.3v-3.5h2.3v0.4H3.9v1.1h1.8v0.4H3.9v1.6H3.4z"/>
	</g>
	<path class="st1" d="M17.8,123.8c-0.5-0.6-0.7-1.5-0.7-2.3c0-0.8,0.3-1.7,0.7-2.3l0.2,0.2c-0.3,0.7-0.5,1.3-0.5,2.1
		c0,0.9,0.2,1.5,0.5,2.1L17.8,123.8z"/>
	<path class="st1" d="M44,123.7c0.3-0.7,0.5-1.3,0.5-2.1c0-0.9-0.2-1.5-0.5-2.1l0.2-0.2c0.5,0.6,0.7,1.5,0.7,2.3
		c0,0.8-0.3,1.7-0.7,2.3L44,123.7z"/>
</g>
<g>
	<g>
		<path class="st7" d="M293.2,190.7c-0.4,0-0.8,0-1.2,0c-0.5,0-0.9,0-1.7,0l-2.3,7.7l-12.5-3.8l2.1-7.2c-1.2-0.5-2.3-1.2-3.3-1.8
			l-5.2,5.2l-9.1-9.1l5.2-5.2c-0.7-0.9-1.3-2.1-1.8-3.3l-7.2,2.1l-3.8-12.5l7.8-2.2c0-0.8,0-1.8,0-2.7l-7.8-2l3.3-12.6l7.7,2
			c0.7-1.3,1.3-2.6,2.1-3.9l-5.3-5.3l9.1-9.1l5.3,5.3c1.2-0.8,2.5-1.4,3.9-2.1l-2-7.7l12.6-3.3l2,7.8c0.4,0,0.8,0,1.2,0
			c0.5,0,0.9,0,1.7,0l2.3-7.7l12.5,3.8l-2.1,7.2c1.2,0.5,2.3,1.2,3.3,1.8l5.2-5.2l9.1,9.1l-5.2,5.2c0.7,0.9,1.3,2.1,1.8,3.3l7.2-2.1
			l3.8,12.5l-7.7,2.3c0,0.9,0,1.8,0,2.7l7.8,2l-3.3,12.6l-7.7-2c-0.7,1.3-1.3,2.6-2.1,3.9l5.3,5.3l-9.1,9.1l-5.3-5.3
			c-1.2,0.8-2.5,1.4-3.9,2.1l2,7.7l-12.6,3.3L293.2,190.7z M292,143.5c-4,0-7.8,1.7-10.8,4.4c-5.9,5.9-5.9,15.5,0,21.5
			c3,3,6.6,4.4,10.8,4.4c4,0,7.8-1.7,10.8-4.4c5.9-5.9,5.9-15.5,0-21.5C299.9,145.1,296,143.5,292,143.5z"/>
	</g>
</g>
<g>
	<polygon class="st8" points="212.9,265 178.9,265 182.1,230.5 209.7,230.5 	"/>
	<g>
		<rect x="136.1" y="264.8" class="st9" width="119.6" height="4.6"/>
	</g>
	<path class="st9" d="M280.3,240H111.4c-3.4,0-6.4-2.8-6.4-6.4V107.1c0-3.4,2.8-6.4,6.4-6.4h168.9c3.4,0,6.4,2.8,6.4,6.4v126.5
		C286.6,237.1,283.7,240,280.3,240z"/>
	<path class="st7" d="M277.8,227H113.9c-1.8,0-3.2-1.4-3.2-3.2V110.2c0-1.8,1.4-3.2,3.2-3.2h163.9c1.8,0,3.2,1.4,3.2,3.2v113.6
		C281,225.6,279.6,227,277.8,227z"/>
	<circle class="st10" cx="195.9" cy="233.6" r="3.3"/>
	<rect x="202.2" y="203.4" class="st11" width="72.4" height="23.6"/>
	<rect x="202.4" y="170.8" class="st4" width="72.4" height="26.7"/>
	<rect x="110.7" y="117" class="st12" width="85.5" height="110"/>
	<rect x="202.5" y="156" class="st13" width="72.2" height="7.4"/>
	<rect x="202.5" y="141.9" class="st13" width="72.2" height="7.4"/>
	<rect x="110.7" y="107" class="st8" width="170.3" height="11.2"/>
</g>
<g>
	<path class="st3" d="M141.8,140.6h-10.3c-1.5,0-2.8-1.2-2.8-2.8s1.2-2.8,2.8-2.8h10.3c1.5,0,2.8,1.2,2.8,2.8
		S143.3,140.6,141.8,140.6z"/>
	<g>
		<path class="st4" d="M122.8,149.7h-0.2c-1.5,0-2.8-1.2-2.8-2.8c0-1.5,1.2-2.8,2.8-2.8h0.2c1.5,0,2.8,1.2,2.8,2.8
			C125.6,148.4,124.4,149.7,122.8,149.7z"/>
		<path class="st4" d="M154.6,149.7h-23.1c-1.5,0-2.8-1.2-2.8-2.8c0-1.5,1.2-2.8,2.8-2.8h23.1c1.5,0,2.8,1.2,2.8,2.8
			C157.3,148.4,156.1,149.7,154.6,149.7z"/>
		<path class="st4" d="M122.8,158.8h-0.2c-1.5,0-2.8-1.2-2.8-2.8c0-1.5,1.2-2.8,2.8-2.8h0.2c1.5,0,2.8,1.2,2.8,2.8
			C125.6,157.5,124.4,158.8,122.8,158.8z"/>
		<path class="st4" d="M148.2,158.8h-16.7c-1.5,0-2.8-1.2-2.8-2.8c0-1.5,1.2-2.8,2.8-2.8h16.7c1.5,0,2.8,1.2,2.8,2.8
			C150.9,157.5,149.7,158.8,148.2,158.8z"/>
		<path class="st4" d="M122.8,167.9h-0.2c-1.5,0-2.8-1.2-2.8-2.8s1.2-2.8,2.8-2.8h0.2c1.5,0,2.8,1.2,2.8,2.8
			S124.4,167.9,122.8,167.9z"/>
		<path class="st4" d="M173.7,167.9h-26.8c-1.5,0-2.8-1.2-2.8-2.8s1.2-2.8,2.8-2.8h26.8c1.5,0,2.8,1.2,2.8,2.8
			S175.2,167.9,173.7,167.9z"/>
		<path class="st4" d="M139.3,167.9h-7.9c-1.5,0-2.8-1.2-2.8-2.8s1.2-2.8,2.8-2.8h7.9c1.5,0,2.8,1.2,2.8,2.8
			S140.9,167.9,139.3,167.9z"/>
	</g>
	<path class="st14" d="M122.8,177h-0.2c-1.5,0-2.8-1.2-2.8-2.8c0-1.5,1.2-2.8,2.8-2.8h0.2c1.5,0,2.8,1.2,2.8,2.8
		C125.6,175.8,124.4,177,122.8,177z"/>
	<path class="st14" d="M154.6,177h-23.1c-1.5,0-2.8-1.2-2.8-2.8c0-1.5,1.2-2.8,2.8-2.8h23.1c1.5,0,2.8,1.2,2.8,2.8
		C157.3,175.8,156.1,177,154.6,177z"/>
	<path class="st14" d="M122.8,186.1h-0.2c-1.5,0-2.8-1.2-2.8-2.8c0-1.5,1.2-2.8,2.8-2.8h0.2c1.5,0,2.8,1.2,2.8,2.8
		S124.4,186.1,122.8,186.1z"/>
	<path class="st14" d="M154.6,186.1h-23.1c-1.5,0-2.8-1.2-2.8-2.8c0-1.5,1.2-2.8,2.8-2.8h23.1c1.5,0,2.8,1.2,2.8,2.8
		C157.3,184.9,156.1,186.1,154.6,186.1z"/>
	<path class="st3" d="M122.8,195.2h-0.2c-1.5,0-2.8-1.2-2.8-2.8c0-1.5,1.2-2.8,2.8-2.8h0.2c1.5,0,2.8,1.2,2.8,2.8
		C125.6,194,124.4,195.2,122.8,195.2z"/>
	<path class="st3" d="M175.8,195.2h-8.9c-1.5,0-2.8-1.2-2.8-2.8c0-1.5,1.2-2.8,2.8-2.8h8.9c1.5,0,2.8,1.2,2.8,2.8
		C178.5,194,177.3,195.2,175.8,195.2z"/>
	<path class="st3" d="M158.7,195.2h-27.3c-1.5,0-2.8-1.2-2.8-2.8c0-1.5,1.2-2.8,2.8-2.8h27.3c1.5,0,2.8,1.2,2.8,2.8
		C161.5,194,160.3,195.2,158.7,195.2z"/>
	<path class="st3" d="M122.8,204.3h-0.2c-1.5,0-2.8-1.2-2.8-2.8c0-1.5,1.2-2.8,2.8-2.8h0.2c1.5,0,2.8,1.2,2.8,2.8
		S124.4,204.3,122.8,204.3z"/>
	<path class="st3" d="M154.6,204.3h-23.1c-1.5,0-2.8-1.2-2.8-2.8c0-1.5,1.2-2.8,2.8-2.8h23.1c1.5,0,2.8,1.2,2.8,2.8
		C157.3,203.1,156.1,204.3,154.6,204.3z"/>
	<path class="st3" d="M163.4,204.3h-0.2c-1.5,0-2.8-1.2-2.8-2.8c0-1.5,1.2-2.8,2.8-2.8h0.2c1.5,0,2.8,1.2,2.8,2.8
		C166.1,203.1,164.9,204.3,163.4,204.3z"/>
	<path class="st3" d="M170.7,204.3h-0.2c-1.5,0-2.8-1.2-2.8-2.8c0-1.5,1.2-2.8,2.8-2.8h0.2c1.5,0,2.8,1.2,2.8,2.8
		S172.3,204.3,170.7,204.3z"/>
	<path class="st3" d="M185.2,195.2H185c-1.5,0-2.8-1.2-2.8-2.8c0-1.5,1.2-2.8,2.8-2.8h0.2c1.5,0,2.8,1.2,2.8,2.8
		C188,194,186.8,195.2,185.2,195.2z"/>
	<path class="st14" d="M163.3,186.2h-0.2c-1.5,0-2.8-1.2-2.8-2.8c0-1.5,1.2-2.8,2.8-2.8h0.2c1.5,0,2.8,1.2,2.8,2.8
		C166,185,164.8,186.2,163.3,186.2z"/>
	<path class="st14" d="M163.3,177h-0.2c-1.5,0-2.8-1.2-2.8-2.8c0-1.5,1.2-2.8,2.8-2.8h0.2c1.5,0,2.8,1.2,2.8,2.8
		C166,175.8,164.8,177,163.3,177z"/>
	<path class="st14" d="M170.7,186.2h-0.2c-1.5,0-2.8-1.2-2.8-2.8c0-1.5,1.2-2.8,2.8-2.8h0.2c1.5,0,2.8,1.2,2.8,2.8
		S172.3,186.2,170.7,186.2z"/>
	<path class="st14" d="M178.2,186.2H178c-1.5,0-2.8-1.2-2.8-2.8c0-1.5,1.2-2.8,2.8-2.8h0.2c1.5,0,2.8,1.2,2.8,2.8
		S179.7,186.2,178.2,186.2z"/>
	<path class="st14" d="M185.7,186.2h-0.2c-1.5,0-2.8-1.2-2.8-2.8c0-1.5,1.2-2.8,2.8-2.8h0.2c1.5,0,2.8,1.2,2.8,2.8
		C188.4,185,187.2,186.2,185.7,186.2z"/>
</g>
<g>
	<circle class="st4" cx="118.3" cy="112.7" r="2.7"/>
	<circle class="st3" cx="128.6" cy="112.8" r="2.7"/>
	<circle class="st2" cx="138.2" cy="112.7" r="2.7"/>
</g>
<path class="st15" d="M203.5,114.9h-50.9c-1.3,0-2.3-1-2.3-2.3l0,0c0-1.3,1-2.3,2.3-2.3h50.9c1.3,0,2.2,1,2.2,2.3h0.1
	C205.9,113.9,204.8,114.9,203.5,114.9z"/>
<g>
	<rect x="295.9" y="173.7" class="st9" width="141.6" height="70.5"/>
	<polygon class="st8" points="437.6,167 295.9,167 295.9,167 295.9,173.8 437.6,173.8 	"/>
	<path class="st2" d="M308.4,171.8L308.4,171.8c-0.8,0-1.4-0.6-1.4-1.4l0,0c0-0.8,0.6-1.4,1.4-1.4l0,0c0.8,0,1.4,0.6,1.4,1.4l0,0
		C309.8,171.1,309.2,171.8,308.4,171.8z"/>
	<path class="st3" d="M303.8,171.8L303.8,171.8c-0.8,0-1.4-0.6-1.4-1.4l0,0c0-0.8,0.6-1.4,1.4-1.4l0,0c0.8,0,1.4,0.6,1.4,1.4l0,0
		C305.2,171.1,304.6,171.8,303.8,171.8z"/>
	<path class="st4" d="M298.9,171.8L298.9,171.8c-0.8,0-1.4-0.6-1.4-1.4l0,0c0-0.8,0.6-1.4,1.4-1.4l0,0c0.8,0,1.4,0.6,1.4,1.4l0,0
		C300.4,171.1,299.7,171.8,298.9,171.8z"/>
	<g>
		<g>
			<rect x="300.4" y="177.5" class="st3" width="45.4" height="0.7"/>
			<rect x="349.7" y="177.5" class="st15" width="23" height="0.7"/>
			<rect x="364.5" y="192.2" class="st15" width="23.1" height="0.7"/>
			<rect x="409.2" y="196.9" class="st3" width="23" height="0.7"/>
			<rect x="367.1" y="189.9" class="st15" width="38.8" height="0.7"/>
			<rect x="367.1" y="196.9" class="st15" width="38.8" height="0.7"/>
			<rect x="390.2" y="213.8" class="st15" width="23" height="0.7"/>
			<rect x="348.1" y="213.8" class="st3" width="23.8" height="0.7"/>
			<rect x="300.4" y="179.8" class="st15" width="45.4" height="0.7"/>
			<rect x="384.2" y="182.2" class="st4" width="45.4" height="0.7"/>
			<rect x="300.4" y="182.2" class="st15" width="80.3" height="0.7"/>
			<rect x="353.6" y="186.9" class="st15" width="80.3" height="0.7"/>
			<rect x="300.4" y="184.5" class="st15" width="52.3" height="0.7"/>
			<rect x="300.4" y="186.9" class="st3" width="45.4" height="0.7"/>
			<rect x="300.7" y="217.1" class="st2" width="45.4" height="0.7"/>
			<rect x="350" y="217.1" class="st15" width="23" height="0.7"/>
			<rect x="300.7" y="219.5" class="st15" width="19.1" height="0.7"/>
			<rect x="384.5" y="221.9" class="st3" width="45.4" height="0.7"/>
			<rect x="300.7" y="221.9" class="st15" width="52.4" height="0.7"/>
			<rect x="354" y="226.6" class="st15" width="80.3" height="0.7"/>
			<rect x="300.7" y="224.2" class="st15" width="80.3" height="0.7"/>
			<rect x="300.7" y="226.6" class="st2" width="45.4" height="0.7"/>
			<rect x="300.4" y="204.4" class="st11" width="29.9" height="0.7"/>
			<rect x="300.4" y="206.7" class="st15" width="79.9" height="0.7"/>
			<rect x="300.4" y="209.1" class="st15" width="45.4" height="0.7"/>
			<rect x="348.4" y="209.1" class="st15" width="45.4" height="0.7"/>
			<rect x="300.4" y="211.5" class="st15" width="22.7" height="0.7"/>
			<rect x="300.4" y="213.8" class="st11" width="27.3" height="0.7"/>
			<rect x="316.2" y="189.9" class="st4" width="45.4" height="0.7"/>
			<rect x="316.2" y="192.2" class="st15" width="45.4" height="0.7"/>
			<rect x="316.2" y="194.6" class="st15" width="24.1" height="0.7"/>
			<rect x="316.2" y="196.9" class="st15" width="45.4" height="0.7"/>
			<rect x="316.2" y="199.3" class="st4" width="45.4" height="0.7"/>
		</g>
		<g>
			<rect x="300.5" y="230.3" class="st3" width="45.4" height="0.7"/>
			<rect x="349.8" y="230.3" class="st15" width="23" height="0.7"/>
			<rect x="300.5" y="232.7" class="st15" width="45.4" height="0.7"/>
			<rect x="384.3" y="235.1" class="st11" width="45.4" height="0.7"/>
			<rect x="300.5" y="235.1" class="st15" width="80.3" height="0.7"/>
			<rect x="353.8" y="239.8" class="st15" width="80.3" height="0.7"/>
			<rect x="300.5" y="237.4" class="st15" width="52.3" height="0.7"/>
			<rect x="300.5" y="239.8" class="st3" width="45.4" height="0.7"/>
		</g>
	</g>
</g>
<g>
	<g>
		<g>
			<path class="st16" d="M303.2,269.4H269c-1.8,0-3.2-1.4-3.2-3.2v-63.5c0-1.8,1.4-3.2,3.2-3.2h34.2c1.8,0,3.2,1.4,3.2,3.2v63.5
				C306.3,268,304.8,269.4,303.2,269.4z"/>
			<path class="st7" d="M302.6,266.7h-32.7c-0.8,0-1.5-0.7-1.5-1.5v-61.6c0-0.8,0.7-1.5,1.5-1.5h32.7c0.8,0,1.5,0.7,1.5,1.5v61.6
				C304.1,266,303.4,266.7,302.6,266.7z"/>
			<g>
				<g>
					<g>
						<defs>
							<path id="SVGID_1_" d="M302.6,266.7h-32.8c-0.8,0-1.5-0.7-1.5-1.5v-61.6c0-0.8,0.7-1.5,1.5-1.5h32.8c0.8,0,1.5,0.7,1.5,1.5
								v61.6C304.2,266,303.5,266.7,302.6,266.7z"/>
						</defs>
						<clipPath id="SVGID_2_">
							<use xlink:href="#SVGID_1_"  style="overflow:visible;"/>
						</clipPath>
						<rect x="268.3" y="201.7" class="st17" width="35.9" height="9.1"/>
					</g>
				</g>
				<g>
					<g>
						<defs>
							<path id="SVGID_3_" d="M302.6,266.7h-32.8c-0.8,0-1.5-0.7-1.5-1.5v-61.6c0-0.8,0.7-1.5,1.5-1.5h32.8c0.8,0,1.5,0.7,1.5,1.5
								v61.6C304.2,266,303.5,266.7,302.6,266.7z"/>
						</defs>
						<clipPath id="SVGID_4_">
							<use xlink:href="#SVGID_3_"  style="overflow:visible;"/>
						</clipPath>
						<rect x="268.3" y="262.7" class="st18" width="35.9" height="5.4"/>
					</g>
				</g>
			</g>
			<path class="st16" d="M279.8,201.3l2.3,2.1c0.2,0.2,0.5,0.4,0.8,0.4h6.9c0.4,0,0.7-0.1,0.8-0.5l1.7-2H279.8L279.8,201.3z"/>
		</g>
		<rect x="271.2" y="224.5" class="st13" width="30.1" height="5.7"/>
		<rect x="275" y="242.3" class="st4" width="22.2" height="6.1"/>
		<g>
			<g id="user">
				<g>
					<path class="st7" d="M286.2,212c-2.6,0-4.9,2.1-4.9,4.9c0,0.8,0.7,1.7,1.7,1.7h6.5c0.8,0,1.7-0.7,1.7-1.7
						C291,214.2,288.8,212,286.2,212z"/>
				</g>
			</g>
		</g>
		<path class="st19" d="M298.7,208.8h-24.8c-0.9,0-1.6-0.7-1.6-1.6l0,0c0-0.9,0.7-1.6,1.6-1.6h24.8c0.9,0,1.6,0.7,1.6,1.6l0,0
			C300.3,208.1,299.6,208.8,298.7,208.8z"/>
	</g>
	<rect x="271.2" y="233.1" class="st13" width="30.1" height="5.7"/>
	<rect x="271.3" y="252" class="st11" width="30.1" height="10.7"/>
	<rect x="271.3" y="210.8" class="st4" width="30" height="10.2"/>
</g>
<g>
	<g>
		<path class="st16" d="M137.6,269.3H53.7c-3.4,0-6.1-2.7-6.1-6.1v-55.4c0-3.4,2.7-6.1,6.1-6.1h83.9c3.4,0,6.1,2.7,6.1,6.1v55.4
			C143.7,266.6,141,269.3,137.6,269.3z"/>
		<path class="st7" d="M128,264.5H56.6c-2.1,0-3.8-1.7-3.8-3.8v-50c0-2.1,1.7-3.8,3.8-3.8H128c2.1,0,3.8,1.7,3.8,3.8v50
			C131.8,262.8,130.1,264.5,128,264.5z"/>
		<circle class="st10" cx="137.7" cy="236.1" r="3"/>
	</g>
	<rect x="57.5" y="216.3" class="st4" width="14.3" height="14.3"/>
	<rect x="75.9" y="216.3" class="st11" width="14.3" height="14.3"/>
	<rect x="94.5" y="216.3" class="st3" width="14.3" height="14.3"/>
	<rect x="112.9" y="216.3" class="st12" width="14.3" height="14.3"/>
	<rect x="57.5" y="234.4" class="st12" width="69.8" height="2.5"/>
	<rect x="57.4" y="241.2" class="st12" width="57.6" height="2.5"/>
	<rect x="57.5" y="247.7" class="st12" width="43.6" height="2.5"/>
	<rect x="57.5" y="253.7" class="st11" width="70.5" height="10.8"/>
	<rect x="52.8" y="210.5" class="st8" width="79" height="3.6"/>
	<path class="st8" d="M128.3,214.1H56.2c-1.9,0-3.5-1.6-3.5-3.5v-0.3c0-1.9,1.6-3.5,3.5-3.5h72.1c1.9,0,3.5,1.6,3.5,3.5v0.3
		C131.8,212.5,130.3,214.1,128.3,214.1z"/>
	<path class="st19" d="M110.4,212.3H74.1c-1,0-1.8-0.8-1.8-1.8l0,0c0-1,0.8-1.8,1.8-1.8h36.3c1,0,1.8,0.8,1.8,1.8l0,0
		C112.3,211.5,111.4,212.3,110.4,212.3z"/>
</g>
<rect x="202.5" y="118.2" class="st4" width="33.8" height="15.2"/>
<rect x="240.8" y="118.2" class="st3" width="33.8" height="15.2"/>
<g>
	<path class="st2" d="M248.8,140.9c3.7,3.7,3.7,9.6,0,13.2c-3.7,3.7-14.3,8.3-17.9,4.8s1.1-14.3,4.8-17.9
		C239.3,137.3,245.2,137.3,248.8,140.9z"/>
	<path class="st20" d="M238,139.2v0.4c0,6.7,5.5,12.2,12.2,12.2h0.3c1.8-3.5,1.2-7.9-1.8-10.9C245.9,138,241.5,137.4,238,139.2z"/>
	<path class="st11" d="M267.8,120.7c11,11,13.2,26.7,2.8,37.2l-5,5c-10.4,10.4-3.2-14.7-14.3-25.7c-11-11-36.3-3.7-25.7-14.3l5-5
		C241.1,107.4,256.8,109.6,267.8,120.7L267.8,120.7z"/>
	<path class="st10" d="M304.4,84.1c3.4,3.4,1.9,24.6-18.7,45.3c-13.4,13.3-21.9,18.1-21.9,18.1c-9,6-13.3,2-19-3.7
		c-5.7-5.7-9.9-10-3.7-19c0,0,4.8-8.5,18.2-21.9C279.7,82.2,301,80.7,304.4,84.1L304.4,84.1z"/>
	<path class="st21" d="M267.3,144.6c-9.3,6.3-13.8,2-19.8-3.9s-10.3-10.4-3.9-19.8l0.9-1.5c-2.5,3.4-3.7,5.3-3.7,5.3
		c-6.1,9-2,13.3,3.7,19c5.7,5.7,10,9.8,19,3.7c0,0,4-2.3,10.9-8C270,143.1,267.3,144.6,267.3,144.6z"/>
	<path class="st22" d="M282.7,105.7c3.1,3.1,3.1,8.2,0,11.5c-3.1,3.1-8.2,3.1-11.5,0c-3.1-3.1-3.1-8.2,0-11.5
		C274.5,102.6,279.6,102.6,282.7,105.7z"/>
	<path class="st11" d="M264.1,125.8c1.6,1.6-1.4,7.4-9.3,15.2c-7.9,7.9-12.7,10-14.3,8.3c-1.6-1.6,0.4-6.4,8.3-14.3
		C256.7,127.1,262.4,124.1,264.1,125.8z"/>
	<path class="st23" d="M277,105.3c1.6,0,3.1,0.7,4.3,1.8c1.2,1.2,1.8,2.7,1.8,4.3s-0.7,3.1-1.8,4.3c-1.2,1.2-2.7,1.8-4.3,1.8
		c-1.6,0-3.1-0.7-4.3-1.8c-1.2-1.2-1.8-2.7-1.8-4.3s0.7-3.1,1.8-4.3C273.9,105.9,275.4,105.3,277,105.3 M277,103.4
		c-2,0-4.2,0.8-5.7,2.4c-3.1,3.1-3.1,8.2,0,11.5c1.5,1.5,3.7,2.4,5.7,2.4c2,0,4.2-0.8,5.7-2.4c3.1-3.1,3.1-8.2,0-11.5
		C281.2,104.1,279.1,103.4,277,103.4z"/>
	<path class="st11" d="M284.6,85.7c0.6,4.3,2.9,8.9,6.7,12.7c3.4,3.3,7.2,5.5,11,6.4c4.2-10.6,3.9-18.7,2-20.7
		C302.5,82.1,294.8,81.9,284.6,85.7z"/>
</g>
<g>
	<g>
		<path class="st4" d="M83.6,150.5l-1.5-5.9l-8.4,2.1l1.5,5.9c-1.3,0.6-2.5,1.3-3.7,2.1l-4-4l-6.1,6.1l4,4c-0.8,1.2-1.5,2.4-2.1,3.7
			l-5.7-1.5l-2.1,8.4l5.9,1.5c-0.1,1-0.1,2,0,3l-5.7,1.7l2.5,8.3l5.4-1.6c0.5,1.1,1.2,2.2,1.9,3.3l-3.9,3.9l6.1,6.1l3.9-3.9
			c1.1,0.7,2.2,1.4,3.3,1.9l-1.6,5.4l8.3,2.5l1.7-5.7c1,0.1,2,0.1,3,0l1.5,5.9l8.4-2.1l-1.5-5.7c1.3-0.6,2.5-1.3,3.7-2.1l4,4
			l6.1-6.1l-4-4c0.8-1.2,1.5-2.4,2.1-3.7l5.7,1.5l2.1-8.4l-5.9-1.5c0.1-1,0-2,0-3l5.7-1.7l-2.5-8.3l-5.4,1.6
			c-0.5-1.1-1.2-2.2-1.9-3.3l3.9-3.9l-6.1-6.1l-3.9,3.9c-1.1-0.7-2.2-1.4-3.3-1.9l1.6-5.4l-8.3-2.5l-1.7,5.7
			C85.6,150.5,84.6,150.5,83.6,150.5z M93.5,165.6c4.7,4.7,4.7,12.4,0,17.1s-12.4,4.7-17.1,0s-4.7-12.4,0-17.1
			S88.7,160.9,93.5,165.6z"/>
		<path class="st1" d="M76.3,182.7c4.7,4.7,12.4,4.7,17.1,0s4.7-12.4,0-17.1s-12.4-4.7-17.1,0S71.6,178,76.3,182.7z M91,168
			c3.4,3.4,3.4,8.9,0,12.3c-3.4,3.4-8.9,3.4-12.3,0c-3.4-3.4-3.4-8.9,0-12.3C82.1,164.6,87.6,164.6,91,168z"/>
	</g>
	<g>
		<path class="st16" d="M68.4,166.3H2.7c-2.6-4-7-6.6-12.1-6.6c-4.3,0-8.2,1.9-10.9,5h10.1l5.5,9.5l0,0l-5.5,9.5h-10.1l0,0l0,0
			c1.2,1.4,2.7,2.6,4.4,3.4c1.5,0.8,3.1,1.3,4.9,1.5c0.5,0.1,1.1,0.1,1.6,0.1c5.1,0,9.5-2.6,12.1-6.6h43.8h21.9
			c0.7,1.4,1.6,2.7,2.7,3.9c3.2,3.5,7.8,5.7,12.9,5.7c1.3,0,2.6-0.1,3.8-0.4c0.5-0.1,1-0.3,1.5-0.4h0.1c0.2-0.1,0.4-0.1,0.5-0.2
			c2.5-0.8,4.8-2.2,6.7-4.2c6.8-6.8,6.8-17.7,0-24.5c-2-2-4.3-3.3-6.7-4.2c-0.2-0.1-0.4-0.1-0.5-0.2c0,0,0,0-0.1,0
			c-1.7-0.5-3.5-0.8-5.3-0.8C77.2,156.7,71.3,160.6,68.4,166.3z M90,164.5l5.6,9.7l-5.6,9.7H78.9l-5.6-9.7l5.6-9.7H90z"/>
		<g>
			<polygon class="st24" points="89.9,183.8 78.8,183.8 73.2,174.2 71.2,174.2 77.7,185.5 90.8,185.5 97.3,174.2 95.5,174.2 			"/>
			<polygon class="st6" points="77.7,162.9 71.2,174.2 73.2,174.2 78.8,164.5 89.9,164.5 95.5,174.2 97.3,174.2 90.8,162.9 			"/>
		</g>
		<g>
			<path class="st24" d="M-3.5,174.2h-1.3l-5.5,9.5h-10.1l0,0l0,0c0.3,0.4,0.7,0.7,1.1,1h9.7L-3.5,174.2z"/>
			<path class="st6" d="M-3.5,174.2L-3.5,174.2l-6.1-10.5h-9.8c-0.3,0.3-0.7,0.7-1,1h10.1l5.5,9.5l0,0l0,0H-3.5L-3.5,174.2z"/>
		</g>
		<path class="st9" d="M90,183.8H78.9l-5.6-9.7H-4.8l-5.5,9.5h-10.1l0,0l0,0c1.2,1.4,2.7,2.6,4.4,3.4c1.5,0.8,3.1,1.3,4.9,1.5
			c0.5,0.1,1.1,0.1,1.6,0.1c5.1,0,9.5-2.6,12.1-6.6h43.8h21.9c0.7,1.4,1.6,2.7,2.7,3.9c3.2,3.5,7.8,5.7,12.9,5.7
			c1.3,0,2.6-0.1,3.8-0.4c0.5-0.1,1-0.3,1.5-0.4h0.1c0.2-0.1,0.4-0.1,0.5-0.2c2.5-0.8,4.8-2.2,6.7-4.2c3.4-3.4,5.1-7.8,5.1-12.2
			h-6.1L90,183.8z"/>
	</g>
</g>
<g>
	<path class="st15" d="M195.8,206.8c-18,0-32.7-14.7-32.7-32.7s14.7-32.7,32.7-32.7s32.7,14.7,32.7,32.7S213.9,206.8,195.8,206.8z"
		/>
	<circle class="st7" cx="195.8" cy="174.1" r="26"/>
	<path class="st25" d="M174.9,174.1c0-13.5,10.3-24.6,23.5-25.9c-0.8-0.1-1.7-0.1-2.5-0.1c-14.4,0-26,11.6-26,26
		c0,14.4,11.6,26,26,26c0.9,0,1.7,0,2.5-0.1C185.2,198.7,174.9,187.6,174.9,174.1z"/>
	<path class="st11" d="M223.8,174.1c0-15.4-12.5-27.9-27.9-27.9S168,158.7,168,174.1c0,15.3,12.3,27.7,27.6,27.9c0.1,0,0.2,0,0.3,0
		c0.1,0,0.2,0,0.3,0C211.4,201.8,223.8,189.4,223.8,174.1z M171.8,176h8.9c0.1,3.5,0.6,6.7,1.3,9.7c-2.2,0.5-4.3,1.2-6.1,1.9
		C173.7,184.3,172.2,180.3,171.8,176z M176,160.5c1.8,0.8,3.9,1.4,6.1,1.9c-0.7,3-1.2,6.2-1.3,9.7h-8.9
		C172.2,167.9,173.7,163.9,176,160.5z M219.9,172.2h-9c-0.1-3.5-0.6-6.7-1.3-9.7c2.2-0.5,4.3-1.2,6.1-1.9
		C218,163.9,219.5,167.9,219.9,172.2z M207.1,172.2h-9.3v-8.3c2.8-0.1,5.5-0.3,8.1-0.7C206.5,165.9,207,168.9,207.1,172.2z
		 M197.8,160.1v-9.7c2.6,1.1,5.2,4.3,7,9.1C202.5,159.8,200.2,160,197.8,160.1z M193.9,150.4v9.7c-2.4-0.1-4.8-0.3-7-0.6
		C188.7,154.7,191.3,151.5,193.9,150.4z M193.9,163.9v8.3h-9.3c0.1-3.3,0.5-6.3,1.2-9C188.4,163.6,191.1,163.8,193.9,163.9z
		 M184.6,176h9.3v8.3c-2.8,0.1-5.5,0.3-8.1,0.7C185.2,182.3,184.7,179.3,184.6,176z M193.9,188.1v9.7c-2.6-1.1-5.2-4.3-7-9.1
		C189.2,188.4,191.5,188.2,193.9,188.1z M197.8,197.8v-9.7c2.4,0.1,4.8,0.3,7,0.6C203,193.5,200.4,196.7,197.8,197.8z M197.8,184.3
		V176h9.3c-0.1,3.3-0.5,6.3-1.2,9C203.3,184.6,200.6,184.3,197.8,184.3z M210.9,176h8.9c-0.3,4.3-1.8,8.3-4.1,11.6
		c-1.8-0.8-3.9-1.4-6.1-1.9C210.4,182.7,210.8,179.5,210.9,176z M213.2,157.4c-1.4,0.5-3,1-4.7,1.4c-0.9-2.7-2.1-5-3.5-6.9
		C208.2,153.1,210.9,155,213.2,157.4z M186.6,151.8c-1.4,1.9-2.5,4.3-3.5,6.9c-1.7-0.4-3.2-0.8-4.7-1.4
		C180.8,155,183.5,153.1,186.6,151.8z M178.5,190.8c1.4-0.5,3-1,4.7-1.4c0.9,2.7,2.1,5,3.5,6.9C183.5,195,180.8,193.1,178.5,190.8z
		 M205.1,196.3c1.4-1.9,2.5-4.3,3.5-6.9c1.7,0.4,3.2,0.8,4.7,1.4C210.9,193.1,208.2,195,205.1,196.3z"/>
</g>
</svg>
